<svg xmlns="http://www.w3.org/2000/svg" xmlns:xlink="http://www.w3.org/1999/xlink" width="500" zoomAndPan="magnify" viewBox="0 0 375 374.999991" height="500" preserveAspectRatio="xMidYMid meet" version="1.0"><defs><g/></defs><g fill="#ffffff" fill-opacity="1"><g transform="translate(5.163281, 215.09215)"><g><path d="M -2.03125 -0.40625 C -0.0390625 -6.4375 1.859375 -12.347656 3.671875 -18.140625 C 4.441406 -20.585938 5.234375 -23.144531 6.046875 -25.8125 C 6.859375 -28.488281 7.671875 -31.140625 8.484375 -33.765625 C 9.304688 -36.398438 10.066406 -38.9375 10.765625 -41.375 C 11.472656 -43.820312 12.097656 -46.085938 12.640625 -48.171875 C 15.128906 -48.171875 17.484375 -48.304688 19.703125 -48.578125 C 21.921875 -48.859375 24.320312 -49.109375 26.90625 -49.328125 C 26.769531 -48.335938 26.625 -47.21875 26.46875 -45.96875 C 26.3125 -44.726562 26.128906 -43.425781 25.921875 -42.0625 C 25.722656 -40.707031 25.507812 -39.300781 25.28125 -37.84375 C 25.050781 -36.394531 24.773438 -34.535156 24.453125 -32.265625 C 24.140625 -30.003906 23.710938 -27.175781 23.171875 -23.78125 L 24.0625 -23.78125 C 25.375 -27.226562 26.457031 -30.09375 27.3125 -32.375 C 28.175781 -34.664062 28.878906 -36.535156 29.421875 -37.984375 C 29.960938 -39.429688 30.515625 -40.847656 31.078125 -42.234375 C 31.648438 -43.617188 32.195312 -44.929688 32.71875 -46.171875 C 33.238281 -47.421875 33.726562 -48.519531 34.1875 -49.46875 C 35.3125 -49.5625 36.375 -49.675781 37.375 -49.8125 C 38.375 -49.945312 39.367188 -50.09375 40.359375 -50.25 C 41.359375 -50.40625 42.367188 -50.5625 43.390625 -50.71875 C 44.410156 -50.882812 45.53125 -51.078125 46.75 -51.296875 C 46.300781 -48.671875 45.867188 -45.976562 45.453125 -43.21875 C 45.046875 -40.457031 44.679688 -37.703125 44.359375 -34.953125 C 44.046875 -32.210938 43.742188 -29.503906 43.453125 -26.828125 C 43.160156 -24.160156 42.898438 -21.628906 42.671875 -19.234375 C 42.128906 -13.609375 41.65625 -8.125 41.25 -2.78125 L 29.421875 -0.671875 C 29.421875 -0.898438 29.453125 -1.515625 29.515625 -2.515625 C 29.585938 -3.515625 29.679688 -4.738281 29.796875 -6.1875 C 29.910156 -7.632812 30.066406 -9.238281 30.265625 -11 C 30.472656 -12.769531 30.675781 -14.535156 30.875 -16.296875 C 31.082031 -18.066406 31.300781 -19.78125 31.53125 -21.4375 C 31.757812 -23.09375 31.984375 -24.507812 32.203125 -25.6875 L 31.59375 -25.6875 C 30.957031 -23.78125 30.253906 -21.773438 29.484375 -19.671875 C 28.722656 -17.566406 27.941406 -15.425781 27.140625 -13.25 C 26.347656 -11.070312 25.566406 -8.941406 24.796875 -6.859375 C 24.023438 -4.773438 23.347656 -2.785156 22.765625 -0.890625 C 21.179688 -0.835938 19.820312 -0.773438 18.6875 -0.703125 C 17.550781 -0.640625 16.238281 -0.5625 14.75 -0.46875 L 16.921875 -25.6875 L 15.90625 -25.6875 C 15.8125 -25.09375 15.582031 -24.101562 15.21875 -22.71875 C 14.851562 -21.34375 14.429688 -19.757812 13.953125 -17.96875 C 13.484375 -16.1875 12.976562 -14.332031 12.4375 -12.40625 C 11.894531 -10.476562 11.382812 -8.6875 10.90625 -7.03125 C 10.425781 -5.375 10.023438 -4.015625 9.703125 -2.953125 C 9.390625 -1.890625 9.210938 -1.289062 9.171875 -1.15625 Z M -2.03125 -0.40625 "/></g></g></g><g fill="#ffffff" fill-opacity="1"><g transform="translate(47.22146, 215.09215)"><g><path d="M 25 -1.359375 C 23.875 -1.179688 22.628906 -0.976562 21.265625 -0.75 C 19.910156 -0.519531 18.6875 -0.316406 17.59375 -0.140625 C 17.78125 -1.628906 17.960938 -3.097656 18.140625 -4.546875 C 18.273438 -5.816406 18.398438 -7.085938 18.515625 -8.359375 C 18.628906 -9.628906 18.734375 -10.71875 18.828125 -11.625 L 12.90625 -11.625 L 10.1875 -1.828125 C 9.195312 -1.691406 8.019531 -1.546875 6.65625 -1.390625 C 5.300781 -1.234375 4.035156 -1.085938 2.859375 -0.953125 C 1.398438 -0.765625 -0.0234375 -0.582031 -1.421875 -0.40625 C 0.390625 -6.4375 2.175781 -12.375 3.9375 -18.21875 C 4.664062 -20.65625 5.425781 -23.210938 6.21875 -25.890625 C 7.007812 -28.566406 7.800781 -31.226562 8.59375 -33.875 C 9.382812 -36.519531 10.140625 -39.066406 10.859375 -41.515625 C 11.585938 -43.960938 12.226562 -46.207031 12.78125 -48.25 C 15.851562 -48.476562 18.988281 -48.75 22.1875 -49.0625 C 25.382812 -49.375 28.5 -49.804688 31.53125 -50.359375 C 31.394531 -48.898438 31.242188 -47.09375 31.078125 -44.9375 C 30.921875 -42.789062 30.773438 -40.445312 30.640625 -37.90625 C 30.503906 -35.375 30.367188 -32.726562 30.234375 -29.96875 C 30.097656 -27.207031 29.960938 -24.488281 29.828125 -21.8125 C 29.597656 -15.5625 29.347656 -8.925781 29.078125 -1.90625 C 27.722656 -1.675781 26.363281 -1.492188 25 -1.359375 Z M 14.546875 -18.421875 C 14.722656 -18.421875 15.046875 -18.429688 15.515625 -18.453125 C 15.992188 -18.472656 16.492188 -18.492188 17.015625 -18.515625 C 17.535156 -18.535156 18.019531 -18.554688 18.46875 -18.578125 C 18.925781 -18.609375 19.25 -18.644531 19.4375 -18.6875 C 19.4375 -18.957031 19.46875 -19.421875 19.53125 -20.078125 C 19.601562 -20.734375 19.671875 -21.476562 19.734375 -22.3125 C 19.804688 -23.15625 19.882812 -24.070312 19.96875 -25.0625 C 20.0625 -26.0625 20.15625 -27.039062 20.25 -28 C 20.425781 -30.3125 20.648438 -32.800781 20.921875 -35.46875 L 21.34375 -41.390625 L 20.3125 -41.3125 L 18.75 -35.46875 Z M 14.546875 -18.421875 "/></g></g></g><g fill="#ffffff" fill-opacity="1"><g transform="translate(76.641803, 215.09215)"><g><path d="M 0.265625 0.0625 C 1.492188 -5.957031 2.675781 -11.84375 3.8125 -17.59375 C 4.21875 -20.039062 4.664062 -22.585938 5.15625 -25.234375 C 5.65625 -27.890625 6.117188 -30.519531 6.546875 -33.125 C 6.984375 -35.726562 7.394531 -38.242188 7.78125 -40.671875 C 8.164062 -43.097656 8.472656 -45.304688 8.703125 -47.296875 C 11.285156 -48.109375 14.070312 -48.707031 17.0625 -49.09375 C 20.050781 -49.476562 23.015625 -49.671875 25.953125 -49.671875 C 27.722656 -49.671875 29.1875 -49.46875 30.34375 -49.0625 C 31.5 -48.65625 32.40625 -48.078125 33.0625 -47.328125 C 33.71875 -46.578125 34.179688 -45.703125 34.453125 -44.703125 C 34.722656 -43.710938 34.859375 -42.609375 34.859375 -41.390625 C 34.859375 -39.578125 34.539062 -37.796875 33.90625 -36.046875 C 33.269531 -34.304688 32.421875 -32.65625 31.359375 -31.09375 C 30.296875 -29.53125 29.070312 -28.101562 27.6875 -26.8125 C 26.3125 -25.519531 24.828125 -24.460938 23.234375 -23.640625 C 24.054688 -21.828125 24.929688 -19.84375 25.859375 -17.6875 C 26.785156 -15.539062 27.65625 -13.492188 28.46875 -11.546875 C 29.375 -9.285156 30.304688 -7.019531 31.265625 -4.75 L 20.71875 -1.09375 C 19.8125 -3.988281 19 -6.703125 18.28125 -9.234375 C 17.957031 -10.273438 17.640625 -11.351562 17.328125 -12.46875 C 17.015625 -13.582031 16.71875 -14.632812 16.4375 -15.625 C 16.164062 -16.625 15.941406 -17.519531 15.765625 -18.3125 C 15.585938 -19.101562 15.472656 -19.75 15.421875 -20.25 L 14.546875 -19.984375 C 14.273438 -18.523438 13.945312 -16.820312 13.5625 -14.875 C 13.175781 -12.925781 12.820312 -11.046875 12.5 -9.234375 C 12.09375 -7.109375 11.6875 -4.957031 11.28125 -2.78125 Z M 16.234375 -29.421875 C 17.097656 -29.515625 18.148438 -29.878906 19.390625 -30.515625 C 20.640625 -31.148438 21.832031 -31.90625 22.96875 -32.78125 C 24.101562 -33.664062 25.078125 -34.582031 25.890625 -35.53125 C 26.703125 -36.488281 27.109375 -37.328125 27.109375 -38.046875 C 27.109375 -38.546875 26.945312 -38.941406 26.625 -39.234375 C 26.3125 -39.535156 25.875 -39.765625 25.3125 -39.921875 C 24.75 -40.078125 24.125 -40.175781 23.4375 -40.21875 C 22.757812 -40.269531 22.0625 -40.296875 21.34375 -40.296875 C 20.84375 -40.296875 20.332031 -40.285156 19.8125 -40.265625 C 19.289062 -40.242188 18.828125 -40.234375 18.421875 -40.234375 Z M 16.234375 -29.421875 "/></g></g></g><g fill="#ffffff" fill-opacity="1"><g transform="translate(106.809537, 215.09215)"><g><path d="M 4.015625 0.609375 C 4.597656 -5.734375 5.140625 -11.960938 5.640625 -18.078125 C 5.867188 -20.609375 6.082031 -23.28125 6.28125 -26.09375 C 6.488281 -28.90625 6.671875 -31.679688 6.828125 -34.421875 C 6.984375 -37.160156 7.109375 -39.804688 7.203125 -42.359375 C 7.296875 -44.921875 7.363281 -47.269531 7.40625 -49.40625 C 8.488281 -49.40625 9.65625 -49.425781 10.90625 -49.46875 C 12.15625 -49.507812 13.285156 -49.550781 14.296875 -49.59375 C 15.316406 -49.644531 16.1875 -49.703125 16.90625 -49.765625 C 17.632812 -49.835938 18 -49.875 18 -49.875 C 17.507812 -44.625 17.082031 -40.3125 16.71875 -36.9375 C 16.351562 -33.5625 16.066406 -30.816406 15.859375 -28.703125 C 15.660156 -26.597656 15.476562 -24.570312 15.3125 -22.625 C 15.15625 -20.675781 14.988281 -18.863281 14.8125 -17.1875 C 14.632812 -15.507812 14.476562 -14.082031 14.34375 -12.90625 L 15.5625 -12.90625 L 23.171875 -49.0625 C 24.390625 -49.101562 25.632812 -49.171875 26.90625 -49.265625 C 28.039062 -49.359375 29.226562 -49.425781 30.46875 -49.46875 C 31.71875 -49.507812 32.863281 -49.597656 33.90625 -49.734375 C 33.269531 -47.742188 32.625 -45.546875 31.96875 -43.140625 C 31.3125 -40.742188 30.628906 -38.253906 29.921875 -35.671875 C 29.222656 -33.085938 28.546875 -30.457031 27.890625 -27.78125 C 27.234375 -25.113281 26.585938 -22.535156 25.953125 -20.046875 C 24.503906 -14.203125 23.054688 -8.195312 21.609375 -2.03125 Z M 4.015625 0.609375 "/></g></g></g><g fill="#ffffff" fill-opacity="1"><g transform="translate(132.560825, 215.09215)"><g><path d="M 0.546875 0.0625 L 9.453125 -48.25 L 30.921875 -50.078125 C 30.597656 -49.085938 30.328125 -48.070312 30.109375 -47.03125 C 29.878906 -46.164062 29.660156 -45.269531 29.453125 -44.34375 C 29.253906 -43.414062 29.085938 -42.585938 28.953125 -41.859375 C 28.492188 -41.816406 27.84375 -41.78125 27 -41.75 C 26.164062 -41.726562 25.273438 -41.707031 24.328125 -41.6875 C 23.378906 -41.664062 22.414062 -41.65625 21.4375 -41.65625 C 20.46875 -41.65625 19.617188 -41.65625 18.890625 -41.65625 L 16.515625 -29.484375 C 17.921875 -29.578125 19.234375 -29.648438 20.453125 -29.703125 C 21.453125 -29.742188 22.472656 -29.765625 23.515625 -29.765625 C 24.554688 -29.765625 25.328125 -29.785156 25.828125 -29.828125 C 25.640625 -28.554688 25.46875 -27.3125 25.3125 -26.09375 C 25.15625 -24.875 24.960938 -23.628906 24.734375 -22.359375 C 24.285156 -22.304688 23.550781 -22.269531 22.53125 -22.25 C 21.507812 -22.226562 20.476562 -22.195312 19.4375 -22.15625 C 18.257812 -22.101562 16.96875 -22.054688 15.5625 -22.015625 L 13.25 -9.515625 L 23.171875 -11.078125 L 22.5 -3.328125 Z M 0.546875 0.0625 "/></g></g></g><g fill="#ffffff" fill-opacity="1"><g transform="translate(155.730189, 215.09215)"><g><path d="M 18.75 -2.171875 C 17.351562 -2.171875 15.867188 -2.125 14.296875 -2.03125 C 12.734375 -1.945312 11.160156 -1.8125 9.578125 -1.625 C 7.992188 -1.445312 6.441406 -1.207031 4.921875 -0.90625 C 3.410156 -0.613281 2.039062 -0.265625 0.8125 0.140625 C 1.082031 -1.898438 1.398438 -4.164062 1.765625 -6.65625 C 2.128906 -9.144531 2.546875 -11.726562 3.015625 -14.40625 C 3.492188 -17.082031 3.972656 -19.773438 4.453125 -22.484375 C 4.929688 -25.203125 5.414062 -27.8125 5.90625 -30.3125 C 7.039062 -36.238281 8.242188 -42.285156 9.515625 -48.453125 L 21.40625 -50.015625 C 20.1875 -44.753906 19.007812 -39.632812 17.875 -34.65625 C 17.375 -32.53125 16.875 -30.320312 16.375 -28.03125 C 15.875 -25.738281 15.394531 -23.503906 14.9375 -21.328125 C 14.488281 -19.160156 14.082031 -17.054688 13.71875 -15.015625 C 13.363281 -12.972656 13.070312 -11.160156 12.84375 -9.578125 C 13.976562 -9.671875 15.191406 -9.726562 16.484375 -9.75 C 17.773438 -9.769531 18.914062 -9.78125 19.90625 -9.78125 C 19.957031 -8.925781 20.023438 -8.078125 20.109375 -7.234375 C 20.203125 -6.398438 20.304688 -5.640625 20.421875 -4.953125 C 20.535156 -4.273438 20.625 -3.675781 20.6875 -3.15625 C 20.757812 -2.632812 20.816406 -2.285156 20.859375 -2.109375 C 20.492188 -2.109375 20.140625 -2.117188 19.796875 -2.140625 C 19.460938 -2.160156 19.113281 -2.171875 18.75 -2.171875 Z M 18.75 -2.171875 "/></g></g></g><g fill="#ffffff" fill-opacity="1"><g transform="translate(176.249684, 215.09215)"><g/></g></g><g fill="#ffffff" fill-opacity="1"><g transform="translate(189.499023, 215.09215)"><g><path d="M 25 -1.359375 C 23.875 -1.179688 22.628906 -0.976562 21.265625 -0.75 C 19.910156 -0.519531 18.6875 -0.316406 17.59375 -0.140625 C 17.78125 -1.628906 17.960938 -3.097656 18.140625 -4.546875 C 18.273438 -5.816406 18.398438 -7.085938 18.515625 -8.359375 C 18.628906 -9.628906 18.734375 -10.71875 18.828125 -11.625 L 12.90625 -11.625 L 10.1875 -1.828125 C 9.195312 -1.691406 8.019531 -1.546875 6.65625 -1.390625 C 5.300781 -1.234375 4.035156 -1.085938 2.859375 -0.953125 C 1.398438 -0.765625 -0.0234375 -0.582031 -1.421875 -0.40625 C 0.390625 -6.4375 2.175781 -12.375 3.9375 -18.21875 C 4.664062 -20.65625 5.425781 -23.210938 6.21875 -25.890625 C 7.007812 -28.566406 7.800781 -31.226562 8.59375 -33.875 C 9.382812 -36.519531 10.140625 -39.066406 10.859375 -41.515625 C 11.585938 -43.960938 12.226562 -46.207031 12.78125 -48.25 C 15.851562 -48.476562 18.988281 -48.75 22.1875 -49.0625 C 25.382812 -49.375 28.5 -49.804688 31.53125 -50.359375 C 31.394531 -48.898438 31.242188 -47.09375 31.078125 -44.9375 C 30.921875 -42.789062 30.773438 -40.445312 30.640625 -37.90625 C 30.503906 -35.375 30.367188 -32.726562 30.234375 -29.96875 C 30.097656 -27.207031 29.960938 -24.488281 29.828125 -21.8125 C 29.597656 -15.5625 29.347656 -8.925781 29.078125 -1.90625 C 27.722656 -1.675781 26.363281 -1.492188 25 -1.359375 Z M 14.546875 -18.421875 C 14.722656 -18.421875 15.046875 -18.429688 15.515625 -18.453125 C 15.992188 -18.472656 16.492188 -18.492188 17.015625 -18.515625 C 17.535156 -18.535156 18.019531 -18.554688 18.46875 -18.578125 C 18.925781 -18.609375 19.25 -18.644531 19.4375 -18.6875 C 19.4375 -18.957031 19.46875 -19.421875 19.53125 -20.078125 C 19.601562 -20.734375 19.671875 -21.476562 19.734375 -22.3125 C 19.804688 -23.15625 19.882812 -24.070312 19.96875 -25.0625 C 20.0625 -26.0625 20.15625 -27.039062 20.25 -28 C 20.425781 -30.3125 20.648438 -32.800781 20.921875 -35.46875 L 21.34375 -41.390625 L 20.3125 -41.3125 L 18.75 -35.46875 Z M 14.546875 -18.421875 "/></g></g></g><g fill="#ffffff" fill-opacity="1"><g transform="translate(218.919355, 215.09215)"><g><path d="M 0.265625 0.0625 C 1.492188 -5.957031 2.675781 -11.84375 3.8125 -17.59375 C 4.21875 -20.039062 4.664062 -22.585938 5.15625 -25.234375 C 5.65625 -27.890625 6.117188 -30.519531 6.546875 -33.125 C 6.984375 -35.726562 7.394531 -38.242188 7.78125 -40.671875 C 8.164062 -43.097656 8.472656 -45.304688 8.703125 -47.296875 C 11.285156 -48.109375 14.070312 -48.707031 17.0625 -49.09375 C 20.050781 -49.476562 23.015625 -49.671875 25.953125 -49.671875 C 27.722656 -49.671875 29.1875 -49.46875 30.34375 -49.0625 C 31.5 -48.65625 32.40625 -48.078125 33.0625 -47.328125 C 33.71875 -46.578125 34.179688 -45.703125 34.453125 -44.703125 C 34.722656 -43.710938 34.859375 -42.609375 34.859375 -41.390625 C 34.859375 -39.578125 34.539062 -37.796875 33.90625 -36.046875 C 33.269531 -34.304688 32.421875 -32.65625 31.359375 -31.09375 C 30.296875 -29.53125 29.070312 -28.101562 27.6875 -26.8125 C 26.3125 -25.519531 24.828125 -24.460938 23.234375 -23.640625 C 24.054688 -21.828125 24.929688 -19.84375 25.859375 -17.6875 C 26.785156 -15.539062 27.65625 -13.492188 28.46875 -11.546875 C 29.375 -9.285156 30.304688 -7.019531 31.265625 -4.75 L 20.71875 -1.09375 C 19.8125 -3.988281 19 -6.703125 18.28125 -9.234375 C 17.957031 -10.273438 17.640625 -11.351562 17.328125 -12.46875 C 17.015625 -13.582031 16.71875 -14.632812 16.4375 -15.625 C 16.164062 -16.625 15.941406 -17.519531 15.765625 -18.3125 C 15.585938 -19.101562 15.472656 -19.75 15.421875 -20.25 L 14.546875 -19.984375 C 14.273438 -18.523438 13.945312 -16.820312 13.5625 -14.875 C 13.175781 -12.925781 12.820312 -11.046875 12.5 -9.234375 C 12.09375 -7.109375 11.6875 -4.957031 11.28125 -2.78125 Z M 16.234375 -29.421875 C 17.097656 -29.515625 18.148438 -29.878906 19.390625 -30.515625 C 20.640625 -31.148438 21.832031 -31.90625 22.96875 -32.78125 C 24.101562 -33.664062 25.078125 -34.582031 25.890625 -35.53125 C 26.703125 -36.488281 27.109375 -37.328125 27.109375 -38.046875 C 27.109375 -38.546875 26.945312 -38.941406 26.625 -39.234375 C 26.3125 -39.535156 25.875 -39.765625 25.3125 -39.921875 C 24.75 -40.078125 24.125 -40.175781 23.4375 -40.21875 C 22.757812 -40.269531 22.0625 -40.296875 21.34375 -40.296875 C 20.84375 -40.296875 20.332031 -40.285156 19.8125 -40.265625 C 19.289062 -40.242188 18.828125 -40.234375 18.421875 -40.234375 Z M 16.234375 -29.421875 "/></g></g></g><g fill="#ffffff" fill-opacity="1"><g transform="translate(249.087078, 215.09215)"><g><path d="M 29.015625 -14.609375 C 27.929688 -12.117188 26.71875 -9.957031 25.375 -8.125 C 24.039062 -6.289062 22.632812 -4.75 21.15625 -3.5 C 19.6875 -2.25 18.203125 -1.328125 16.703125 -0.734375 C 15.210938 -0.148438 13.769531 0.140625 12.375 0.140625 C 10.96875 0.140625 9.6875 -0.175781 8.53125 -0.8125 C 7.375 -1.445312 6.363281 -2.398438 5.5 -3.671875 C 4.644531 -4.941406 3.957031 -6.503906 3.4375 -8.359375 C 2.914062 -10.210938 2.65625 -12.382812 2.65625 -14.875 C 2.65625 -19.132812 3.242188 -23.335938 4.421875 -27.484375 C 5.597656 -31.628906 7.25 -35.351562 9.375 -38.65625 C 11.507812 -41.96875 14.035156 -44.628906 16.953125 -46.640625 C 19.878906 -48.660156 23.109375 -49.671875 26.640625 -49.671875 C 27.722656 -49.671875 28.765625 -49.441406 29.765625 -48.984375 C 30.765625 -48.535156 31.625 -47.90625 32.34375 -47.09375 C 33.070312 -46.28125 33.648438 -45.28125 34.078125 -44.09375 C 34.503906 -42.914062 34.71875 -41.601562 34.71875 -40.15625 C 34.71875 -39.882812 34.71875 -39.601562 34.71875 -39.3125 C 34.71875 -39.019531 34.695312 -38.710938 34.65625 -38.390625 L 25.75 -36.015625 C 25.207031 -37.148438 24.570312 -37.71875 23.84375 -37.71875 C 23.125 -37.71875 22.367188 -37.296875 21.578125 -36.453125 C 20.785156 -35.617188 20.003906 -34.53125 19.234375 -33.1875 C 18.460938 -31.851562 17.710938 -30.359375 16.984375 -28.703125 C 16.265625 -27.054688 15.628906 -25.394531 15.078125 -23.71875 C 14.535156 -22.039062 14.09375 -20.441406 13.75 -18.921875 C 13.414062 -17.410156 13.25 -16.175781 13.25 -15.21875 C 13.25 -13.769531 13.441406 -12.75 13.828125 -12.15625 C 14.210938 -11.570312 14.722656 -11.28125 15.359375 -11.28125 C 15.859375 -11.28125 16.421875 -11.472656 17.046875 -11.859375 C 17.679688 -12.242188 18.269531 -12.738281 18.8125 -13.34375 C 19.363281 -13.957031 19.863281 -14.648438 20.3125 -15.421875 C 20.769531 -16.191406 21.085938 -16.960938 21.265625 -17.734375 Z M 29.015625 -14.609375 "/></g></g></g><g fill="#ffffff" fill-opacity="1"><g transform="translate(277.216471, 215.09215)"><g><path d="M 0.546875 0.140625 C 1.816406 -6.203125 3.039062 -12.390625 4.21875 -18.421875 C 4.664062 -20.992188 5.140625 -23.671875 5.640625 -26.453125 C 6.140625 -29.242188 6.601562 -32 7.03125 -34.71875 C 7.457031 -37.4375 7.863281 -40.078125 8.25 -42.640625 C 8.632812 -45.203125 8.941406 -47.523438 9.171875 -49.609375 C 10.210938 -49.554688 11.175781 -49.492188 12.0625 -49.421875 C 12.945312 -49.359375 13.816406 -49.304688 14.671875 -49.265625 C 15.535156 -49.222656 16.410156 -49.1875 17.296875 -49.15625 C 18.179688 -49.132812 19.144531 -49.125 20.1875 -49.125 C 19.414062 -45.914062 18.65625 -42.703125 17.90625 -39.484375 C 17.15625 -36.265625 16.460938 -33.023438 15.828125 -29.765625 L 22.5625 -30.515625 C 23.195312 -33.722656 23.757812 -36.832031 24.25 -39.84375 C 24.75 -42.863281 25.410156 -45.984375 26.234375 -49.203125 C 27.273438 -49.378906 28.425781 -49.523438 29.6875 -49.640625 C 30.957031 -49.753906 32.132812 -49.851562 33.21875 -49.9375 C 34.3125 -50.03125 35.234375 -50.109375 35.984375 -50.171875 C 36.734375 -50.242188 37.109375 -50.28125 37.109375 -50.28125 C 36.472656 -48.25 35.867188 -46.019531 35.296875 -43.59375 C 34.734375 -41.164062 34.179688 -38.648438 33.640625 -36.046875 C 33.097656 -33.441406 32.578125 -30.800781 32.078125 -28.125 C 31.578125 -25.457031 31.125 -22.921875 30.71875 -20.515625 C 29.71875 -14.765625 28.785156 -8.878906 27.921875 -2.859375 L 17.328125 -1.625 C 17.921875 -4.34375 18.441406 -6.992188 18.890625 -9.578125 C 19.347656 -11.753906 19.8125 -14.019531 20.28125 -16.375 C 20.757812 -18.726562 21.132812 -20.742188 21.40625 -22.421875 L 14.8125 -21.8125 C 14.5 -20.09375 14.125 -18.097656 13.6875 -15.828125 C 13.257812 -13.566406 12.863281 -11.414062 12.5 -9.375 C 12 -6.925781 11.503906 -4.476562 11.015625 -2.03125 Z M 0.546875 0.140625 "/></g></g></g><g fill="#ffffff" fill-opacity="1"><g transform="translate(307.180374, 215.09215)"><g><path d="M 11.546875 -1.359375 C 11.140625 -1.359375 10.335938 -1.300781 9.140625 -1.1875 C 7.941406 -1.070312 6.707031 -0.9375 5.4375 -0.78125 C 4.164062 -0.625 3.019531 -0.476562 2 -0.34375 C 0.976562 -0.207031 0.425781 -0.113281 0.34375 -0.0625 C 0.789062 -2.007812 1.253906 -4.171875 1.734375 -6.546875 C 2.210938 -8.929688 2.695312 -11.425781 3.1875 -14.03125 C 3.6875 -16.632812 4.160156 -19.269531 4.609375 -21.9375 C 5.066406 -24.613281 5.5 -27.203125 5.90625 -29.703125 C 6.863281 -35.492188 7.816406 -41.445312 8.765625 -47.5625 L 19.359375 -49.265625 C 18.316406 -43.191406 17.300781 -37.234375 16.3125 -31.390625 C 15.90625 -28.898438 15.484375 -26.316406 15.046875 -23.640625 C 14.617188 -20.972656 14.1875 -18.320312 13.75 -15.6875 C 13.320312 -13.0625 12.925781 -10.515625 12.5625 -8.046875 C 12.207031 -5.578125 11.867188 -3.347656 11.546875 -1.359375 Z M 11.546875 -1.359375 "/></g></g></g><g fill="#ffffff" fill-opacity="1"><g transform="translate(320.905341, 215.09215)"><g><path d="M 4.015625 0.609375 C 4.597656 -5.734375 5.140625 -11.960938 5.640625 -18.078125 C 5.867188 -20.609375 6.082031 -23.28125 6.28125 -26.09375 C 6.488281 -28.90625 6.671875 -31.679688 6.828125 -34.421875 C 6.984375 -37.160156 7.109375 -39.804688 7.203125 -42.359375 C 7.296875 -44.921875 7.363281 -47.269531 7.40625 -49.40625 C 8.488281 -49.40625 9.65625 -49.425781 10.90625 -49.46875 C 12.15625 -49.507812 13.285156 -49.550781 14.296875 -49.59375 C 15.316406 -49.644531 16.1875 -49.703125 16.90625 -49.765625 C 17.632812 -49.835938 18 -49.875 18 -49.875 C 17.507812 -44.625 17.082031 -40.3125 16.71875 -36.9375 C 16.351562 -33.5625 16.066406 -30.816406 15.859375 -28.703125 C 15.660156 -26.597656 15.476562 -24.570312 15.3125 -22.625 C 15.15625 -20.675781 14.988281 -18.863281 14.8125 -17.1875 C 14.632812 -15.507812 14.476562 -14.082031 14.34375 -12.90625 L 15.5625 -12.90625 L 23.171875 -49.0625 C 24.390625 -49.101562 25.632812 -49.171875 26.90625 -49.265625 C 28.039062 -49.359375 29.226562 -49.425781 30.46875 -49.46875 C 31.71875 -49.507812 32.863281 -49.597656 33.90625 -49.734375 C 33.269531 -47.742188 32.625 -45.546875 31.96875 -43.140625 C 31.3125 -40.742188 30.628906 -38.253906 29.921875 -35.671875 C 29.222656 -33.085938 28.546875 -30.457031 27.890625 -27.78125 C 27.234375 -25.113281 26.585938 -22.535156 25.953125 -20.046875 C 24.503906 -14.203125 23.054688 -8.195312 21.609375 -2.03125 Z M 4.015625 0.609375 "/></g></g></g><g fill="#ffffff" fill-opacity="1"><g transform="translate(346.656628, 215.09215)"><g><path d="M 0.546875 0.0625 L 9.453125 -48.25 L 30.921875 -50.078125 C 30.597656 -49.085938 30.328125 -48.070312 30.109375 -47.03125 C 29.878906 -46.164062 29.660156 -45.269531 29.453125 -44.34375 C 29.253906 -43.414062 29.085938 -42.585938 28.953125 -41.859375 C 28.492188 -41.816406 27.84375 -41.78125 27 -41.75 C 26.164062 -41.726562 25.273438 -41.707031 24.328125 -41.6875 C 23.378906 -41.664062 22.414062 -41.65625 21.4375 -41.65625 C 20.46875 -41.65625 19.617188 -41.65625 18.890625 -41.65625 L 16.515625 -29.484375 C 17.921875 -29.578125 19.234375 -29.648438 20.453125 -29.703125 C 21.453125 -29.742188 22.472656 -29.765625 23.515625 -29.765625 C 24.554688 -29.765625 25.328125 -29.785156 25.828125 -29.828125 C 25.640625 -28.554688 25.46875 -27.3125 25.3125 -26.09375 C 25.15625 -24.875 24.960938 -23.628906 24.734375 -22.359375 C 24.285156 -22.304688 23.550781 -22.269531 22.53125 -22.25 C 21.507812 -22.226562 20.476562 -22.195312 19.4375 -22.15625 C 18.257812 -22.101562 16.96875 -22.054688 15.5625 -22.015625 L 13.25 -9.515625 L 23.171875 -11.078125 L 22.5 -3.328125 Z M 0.546875 0.0625 "/></g></g></g></svg>